HIERARCHY
ROOT Hips
{
    OFFSET 0.000000 0.000000 0.000000
    CHANNELS 6 Xposition Yposition Zposition Zrotation Xrotation Yrotation
        JOINT Spine1
        {
            OFFSET -0.000000 23.269398 0.000000
            CHANNELS 3 Zrotation Xrotation Yrotation
            JOINT Neck
            {
                OFFSET -0.000000 18.032967 0.000000
                CHANNELS 3 Zrotation Xrotation Yrotation
                JOINT Head
                {
                    OFFSET -0.000000 13.091072 1.689171
                    CHANNELS 3 Zrotation Xrotation Yrotation
                    End Site
                    {
                        OFFSET -0.000000 16.891708 0.000000
                    }
                }
            }
            JOINT LeftShoulder
            {
                OFFSET 3.336773 14.146137 -0.012206
                CHANNELS 3 Zrotation Xrotation Yrotation
                JOINT LeftArm
                {
                    OFFSET 11.765518 0.000000 0.000000
                    CHANNELS 3 Zrotation Xrotation Yrotation
                    JOINT LeftForeArm
                    {
                        OFFSET 25.163450 0.000000 0.000000
                        CHANNELS 3 Zrotation Xrotation Yrotation
                        JOINT LeftHand
                        {
                            OFFSET 21.783554 0.000000 0.000000
                            CHANNELS 3 Zrotation Xrotation Yrotation
                            End Site
                            {
                                OFFSET 12.668781 0.000000 0.000000
                            }
                        }
                    }
                }
            }
            JOINT RightShoulder
            {
                OFFSET -3.409204 14.146137 -0.012206
                CHANNELS 3 Zrotation Xrotation Yrotation
                JOINT RightArm
                {
                    OFFSET -11.765518 0.000000 0.000000
                    CHANNELS 3 Zrotation Xrotation Yrotation
                    JOINT RightForeArm
                    {
                        OFFSET -25.163450 0.000000 0.000000
                        CHANNELS 3 Zrotation Xrotation Yrotation
                        JOINT RightHand
                        {
                            OFFSET -21.783554 0.000000 0.000000
                            CHANNELS 3 Zrotation Xrotation Yrotation
                            End Site
                            {
                                OFFSET -12.668781 0.000000 0.000000
                            }
                        }
                    }
                }
            }
        }
        JOINT LeftUpLeg
    {
        OFFSET 8.445854 0.000000 0.000000
        CHANNELS 3 Zrotation Xrotation Yrotation
        JOINT LeftLeg
        {
            OFFSET -0.000000 -40.674755 0.000000
            CHANNELS 3 Zrotation Xrotation Yrotation
            JOINT LeftFoot
            {
                OFFSET -0.000000 -37.111794 0.000000
                CHANNELS 3 Zrotation Xrotation Yrotation
                JOINT LeftToeBase
                {
                    OFFSET -0.000000 -5.489805 12.668781
                    CHANNELS 3 Zrotation Xrotation Yrotation
                    End Site
                    {
                        OFFSET -0.000000 0.000000 3.378341
                    }
                }
            }
        }
    }
    JOINT RightUpLeg
    {
        OFFSET -8.445854 0.000000 0.000000
        CHANNELS 3 Zrotation Xrotation Yrotation
        JOINT RightLeg
        {
            OFFSET -0.000000 -40.674755 0.000000
            CHANNELS 3 Zrotation Xrotation Yrotation
            JOINT RightFoot
            {
                OFFSET -0.000000 -37.111794 0.000000
                CHANNELS 3 Zrotation Xrotation Yrotation
                JOINT RightToeBase
                {
                    OFFSET -0.000000 -5.489805 12.668781
                    CHANNELS 3 Zrotation Xrotation Yrotation
                    End Site
                    {
                        OFFSET -0.000000 0.000000 3.378341
                    }
                }
            }
        }
    }
}
MOTION
Frames:    13
Frame Time:    0.008333
107.711792    84.040939    104.196739    2.800285    -0.813601    -71.253120    -0.309607    3.396102    -0.049573    -1.466324    -0.007202    2.238893    2.265595    0.766576    1.810895    -1.443360    9.436453    11.572063    -53.230778    34.393463    -22.645105    3.570296    -0.719636    -17.798923    -2.179914    -0.063210    -5.125544    -2.571107    9.386965    -3.876151    49.924515    39.320435    32.438065    -3.454161    -1.351853    29.219032    -4.108198    -0.670165    6.093375    9.075422    -5.028452    -3.184169    -2.006202    27.481066    2.655566    -15.632816    -7.632273    19.409567    -8.678868    -10.665797    0.981146    2.543399    -2.258114    3.571293    -5.171811    2.596532    -9.098847    -1.162262    -6.187780    -4.004972    -2.530143    4.005939    0.582774    
107.556976    83.997940    104.042885    2.599117    -0.853332    -71.452888    -0.234853    3.738432    0.056313    -1.411236    0.165855    1.368743    2.436033    0.713767    0.894886    -1.339247    9.208179    11.557113    -53.438416    34.520588    -22.432014    3.700399    -0.810796    -17.592669    -1.437619    -0.180413    -4.610348    -2.600775    9.568364    -3.960522    49.577175    39.219048    32.970768    -3.507952    -0.988612    29.386541    -5.069648    -0.334647    6.011060    9.462593    -5.536210    -3.235951    -2.512465    28.885910    4.165766    -16.009289    -6.907851    18.070375    -9.061408    -11.189629    0.778854    2.689803    -2.016335    3.797690    -5.120000    2.656299    -9.075110    -1.274090    -6.267969    -4.007230    -2.501830    3.548183    1.250484    
107.390305    83.958008    103.886368    2.382653    -0.904752    -71.665138    -0.175964    4.112614    0.101683    -0.945561    0.066630    0.400563    2.305333    1.453185    -0.038752    -1.407811    9.182611    11.568597    -53.416798    34.422421    -22.306223    3.726022    -0.723458    -17.464039    -1.090834    -0.107746    -4.550179    -2.617304    9.542549    -3.930990    49.354202    39.236752    33.215439    -3.394303    -1.564120    29.805012    -4.020540    -0.880350    6.250658    9.476242    -6.373646    -2.048367    -1.503274    31.094589    2.242609    -16.584448    -6.968493    18.358973    -9.401111    -11.681260    0.473526    2.823236    -1.739380    3.966933    -5.051993    2.687375    -9.012447    -1.381927    -6.340528    -4.004409    -2.397416    2.734784    2.322040    
107.229996    83.912155    103.732277    2.147223    -0.938336    -71.875732    -0.260548    4.529186    0.205104    -0.236126    0.122242    -0.604030    1.391578    1.324397    -0.851181    -1.207188    9.459815    11.612155    -53.489571    34.343979    -22.519199    3.941481    -0.716403    -17.323748    -0.898405    -0.080378    -4.534693    -2.473380    9.877667    -3.645945    49.110420    38.813862    33.369736    -3.406557    -1.655584    30.298086    -4.125857    -0.965328    6.437222    10.145116    -7.132021    -3.226087    -3.365577    32.934341    3.802937    -16.368484    -6.687937    18.461786    -9.795848    -12.234594    0.159762    2.881438    -1.406587    4.031096    -4.831252    2.660262    -7.822959    0.232219    -6.669254    -5.461446    -2.536253    3.213726    1.903300    
107.073891    83.865417    103.586670    1.919044    -0.961219    -72.090965    -0.193276    4.959835    0.282929    -0.265330    0.048383    -1.324188    1.634707    1.528345    -1.635988    -1.109368    9.253886    11.636555    -53.634659    34.479450    -22.303625    4.022218    -0.732586    -17.304544    -0.594492    -0.097347    -4.413957    -2.436272    9.845644    -3.623561    48.835861    38.794441    33.649437    -3.280292    -1.807657    30.595182    -4.443531    -1.177138    6.864712    10.413465    -7.805896    -3.416285    -3.756146    34.605629    3.934138    -16.259613    -6.131702    18.613707    -10.315668    -12.903473    -0.038481    3.063738    -1.195472    4.080480    -4.824075    2.784688    -8.254504    -1.649095    -6.562745    -4.419734    -2.325612    3.111088    1.480680    
106.914726    83.816681    103.441689    1.661658    -0.977089    -72.305946    -0.109008    5.430653    0.356408    -0.296722    0.216711    -2.003516    1.906986    1.288351    -2.377228    -1.104151    9.282886    11.608911    -53.627171    34.393356    -22.281483    4.080826    -0.767260    -17.305475    -0.389606    -0.131364    -4.346268    -2.358109    9.735555    -3.598649    48.523682    38.840897    33.830288    -3.434047    -1.736933    30.994579    -4.405356    -1.030004    6.370813    12.158422    -8.553754    -3.374464    -7.498297    36.351986    1.992146    -13.866699    -6.169781    21.642797    -10.664068    -13.310257    0.001798    3.195972    -0.848246    4.144866    -4.677482    2.689485    -8.136874    -1.795535    -6.586699    -4.391421    -2.314148    3.018272    1.604197    
106.760338    83.792465    103.280762    1.407953    -0.871324    -72.540871    0.108690    5.861261    0.264657    -0.366522    0.309615    -2.535265    2.104052    1.208693    -2.962445    -1.152303    9.331269    11.702952    -53.672039    34.245502    -22.201134    4.101049    -0.696238    -17.417694    -0.091995    -0.064361    -4.247653    -2.117472    9.301118    -3.636037    47.953377    39.089680    34.084412    -3.478590    -1.381709    31.149048    -5.240854    -0.698419    6.252785    12.560159    -9.337064    -3.412814    -7.959699    37.924080    2.522358    -12.635701    -3.383431    21.898090    -12.807453    -16.088364    -1.505964    3.482816    -0.554805    4.189038    -4.607512    2.622086    -8.750061    -1.817166    -6.653976    -3.561231    -2.304191    3.008829    1.591843    
106.593491    83.711189    103.171494    1.130256    -0.985117    -72.740074    0.140882    6.404070    0.269711    -0.391233    0.372405    -3.053236    2.241657    1.069336    -3.517582    -1.150623    9.346129    11.737548    -53.775307    34.204327    -22.115150    4.199030    -0.755797    -17.585363    0.103826    -0.110192    -4.099108    -2.087074    9.263057    -3.579090    61.521149    19.521967    32.949486    3.956934    11.636074    19.640640    -7.212249    10.139002    13.257904    12.914550    -9.978243    -4.105565    -9.381705    39.410137    3.597726    -11.212107    -2.343362    22.002413    -13.131504    -16.483692    -1.683848    3.626003    -0.065130    5.124534    -4.753510    2.491365    -9.628916    -1.039075    -7.182974    -3.098254    -2.515995    3.668660    1.092049    
106.432961    83.656822    103.055504    0.853476    -0.991676    -72.970917    -0.030586    7.107093    0.364924    1.879526    0.148262    -4.824060    -0.131588    1.090419    -4.713110    -0.646764    9.156781    12.110750    -54.140560    34.628822    -22.251877    4.498398    -0.841824    -17.636505    0.152841    -0.148998    -4.057172    -1.345378    8.797253    -3.730684    60.938473    19.259352    32.953835    4.309248    11.875020    19.956007    -7.386707    10.274636    13.451066    13.087220    -10.641177    -3.631063    -9.225989    41.079369    3.456623    -10.221889    -1.220578    21.583588    -13.467393    -16.882339    -1.818075    3.674905    0.220046    4.171686    -4.517787    2.370059    -7.109555    -1.667637    -4.848738    -4.254868    0.187771    -0.273127    -0.088957    
106.131271    83.623611    103.028069    0.232515    -1.044654    -73.518417    0.205498    7.989625    0.598443    1.797989    0.154363    -5.199017    -0.003829    0.959364    -5.129025    -0.690584    9.113668    12.149676    -54.306160    34.545971    -22.080460    4.573377    -0.842750    -17.837521    0.246838    -0.133328    -4.077508    -1.329784    8.746197    -3.638891    60.752167    19.131338    33.170120    4.383644    11.481602    20.361813    -6.572660    9.923481    13.832147    12.269258    -10.679466    -3.749801    -6.890601    42.624142    3.798987    -11.477015    -0.614328    20.584700    -12.987880    -16.586153    -3.396613    3.797175    1.158207    4.214100    -4.443935    2.246842    -6.733883    -0.029913    -7.151591    -5.075330    -2.577638    3.182006    2.072930    
105.974518    83.542633    102.935707    0.000160    -1.116509    -73.708603    0.280744    8.488956    0.580272    1.741076    0.154948    -5.535071    0.141951    0.855836    -5.503682    -0.824620    9.376529    12.157606    -54.238049    34.297516    -22.245108    4.628732    -0.831908    -18.049744    0.389914    -0.110564    -4.020308    -1.279676    8.668956    -3.540578    60.598946    18.962622    33.339005    4.383500    11.619208    20.614231    -6.722777    10.023638    14.009126    12.408539    -11.292632    -3.995630    -7.567228    44.080441    3.857139    -10.427878    -1.011093    20.155979    -12.178308    -15.600950    -2.834525    3.873649    1.526123    4.232084    -4.437284    2.150895    -6.614659    -0.062501    -7.145065    -5.049873    -2.601358    3.194632    2.118354    
105.932686    83.494652    102.757797    0.060743    -0.964802    -73.701675    0.491224    8.627576    0.388721    1.816312    0.092464    -5.899566    0.021016    0.871813    -5.854696    -0.841225    9.376122    12.196198    -54.389610    34.250393    -22.178183    4.702224    -0.825720    -18.270456    0.390888    -0.083870    -3.979505    -1.254749    8.582670    -3.487852    60.422325    18.880201    33.568516    4.482563    11.931619    20.622307    -7.650181    10.184527    14.346930    12.755494    -12.512712    -4.355742    -8.226189    45.401802    4.224904    -11.707562    -1.821300    20.327847    -10.723385    -13.618554    -1.123314    4.131527    1.374042    4.059954    -4.471239    2.249897    -6.448309    -0.093937    -7.142340    -4.902664    -2.553720    3.238380    1.911094    
105.756844    83.446243    102.677414    -0.185987    -0.951340    -73.978790    0.659119    9.073915    0.453812    1.864220    0.081191    -6.218178    -0.042837    0.919692    -6.168904    -0.739585    9.169074    12.227703    -54.728310    34.358597    -21.909599    4.753949    -0.811524    -18.437979    0.394712    -0.055185    -4.048040    -1.217167    8.523813    -3.441482    60.239738    18.797056    33.736740    4.569276    11.626842    20.936335    -6.823080    9.950097    14.389044    12.771236    -12.915284    -4.547329    -8.194711    46.087280    7.869043    -12.190622    -1.880097    16.478699    -9.503767    -12.654860    -3.141461    4.336904    1.757305    4.673453    -4.515816    2.149801    -6.864047    -0.115507    -7.284519    -4.939316    -2.673621    3.390282    1.993281    
